<svg id="visual" viewBox="0 0 900 600" width="900" height="600" xmlns="http://www.w3.org/2000/svg" xmlns:xlink="http://www.w3.org/1999/xlink" version="1.1"><path d="M0 43L150 43L300 43L450 31L600 25L750 31L900 43L900 0L750 0L600 0L450 0L300 0L150 0L0 0Z" fill="#ffffff"></path><path d="M0 121L150 187L300 199L450 109L600 145L750 139L900 181L900 41L750 29L600 23L450 29L300 41L150 41L0 41Z" fill="#f7f8f9"></path><path d="M0 205L150 253L300 247L450 181L600 193L750 241L900 253L900 179L750 137L600 143L450 107L300 197L150 185L0 119Z" fill="#f0f1f3"></path><path d="M0 271L150 289L300 319L450 247L600 271L750 277L900 289L900 251L750 239L600 191L450 179L300 245L150 251L0 203Z" fill="#e8ebee"></path><path d="M0 295L150 301L300 331L450 271L600 301L750 289L900 319L900 287L750 275L600 269L450 245L300 317L150 287L0 269Z" fill="#e1e5e8"></path><path d="M0 391L150 373L300 409L450 409L600 433L750 439L900 415L900 317L750 287L600 299L450 269L300 329L150 299L0 293Z" fill="#dee2e6"></path><path d="M0 403L150 391L300 439L450 433L600 457L750 451L900 427L900 413L750 437L600 431L450 407L300 407L150 371L0 389Z" fill="#dee2e6"></path><path d="M0 421L150 427L300 463L450 451L600 499L750 475L900 463L900 425L750 449L600 455L450 431L300 437L150 389L0 401Z" fill="#e1e5e8"></path><path d="M0 481L150 481L300 529L450 499L600 535L750 523L900 505L900 461L750 473L600 497L450 449L300 461L150 425L0 419Z" fill="#e8ebee"></path><path d="M0 535L150 529L300 553L450 529L600 565L750 559L900 553L900 503L750 521L600 533L450 497L300 527L150 479L0 479Z" fill="#f0f1f3"></path><path d="M0 571L150 565L300 577L450 565L600 583L750 583L900 571L900 551L750 557L600 563L450 527L300 551L150 527L0 533Z" fill="#f7f8f9"></path><path d="M0 601L150 601L300 601L450 601L600 601L750 601L900 601L900 569L750 581L600 581L450 563L300 575L150 563L0 569Z" fill="#ffffff"></path></svg>