<svg id="visual" viewBox="0 0 900 600" width="900" height="600" xmlns="http://www.w3.org/2000/svg" xmlns:xlink="http://www.w3.org/1999/xlink" version="1.1"><path d="M0 49L82 55L164 91L245 37L327 61L409 67L491 49L573 37L655 85L736 25L818 61L900 37L900 0L818 0L736 0L655 0L573 0L491 0L409 0L327 0L245 0L164 0L82 0L0 0Z" fill="#ffffff"></path><path d="M0 85L82 73L164 103L245 61L327 97L409 85L491 97L573 85L655 133L736 85L818 121L900 61L900 35L818 59L736 23L655 83L573 35L491 47L409 65L327 59L245 35L164 89L82 53L0 47Z" fill="#f6f7f8"></path><path d="M0 181L82 127L164 169L245 109L327 133L409 229L491 187L573 235L655 235L736 193L818 229L900 145L900 59L818 119L736 83L655 131L573 83L491 95L409 83L327 95L245 59L164 101L82 71L0 83Z" fill="#eceef1"></path><path d="M0 301L82 175L164 271L245 259L327 229L409 349L491 325L573 415L655 349L736 265L818 301L900 379L900 143L818 227L736 191L655 233L573 233L491 185L409 227L327 131L245 107L164 167L82 125L0 179Z" fill="#e3e7ea"></path><path d="M0 319L82 253L164 313L245 313L327 265L409 367L491 367L573 439L655 421L736 337L818 319L900 409L900 377L818 299L736 263L655 347L573 413L491 323L409 347L327 227L245 257L164 269L82 173L0 299Z" fill="#dee2e6"></path><path d="M0 337L82 265L164 349L245 331L327 295L409 403L491 385L573 463L655 445L736 361L818 349L900 421L900 407L818 317L736 335L655 419L573 437L491 365L409 365L327 263L245 311L164 311L82 251L0 317Z" fill="#dee2e6"></path><path d="M0 499L82 475L164 481L245 517L327 511L409 529L491 457L573 553L655 529L736 523L818 499L900 487L900 419L818 347L736 359L655 443L573 461L491 383L409 401L327 293L245 329L164 347L82 263L0 335Z" fill="#e3e7ea"></path><path d="M0 523L82 535L164 517L245 529L327 553L409 553L491 505L573 571L655 541L736 559L818 553L900 517L900 485L818 497L736 521L655 527L573 551L491 455L409 527L327 509L245 515L164 479L82 473L0 497Z" fill="#eceef1"></path><path d="M0 547L82 583L164 547L245 559L327 577L409 565L491 553L573 583L655 565L736 589L818 583L900 565L900 515L818 551L736 557L655 539L573 569L491 503L409 551L327 551L245 527L164 515L82 533L0 521Z" fill="#f6f7f8"></path><path d="M0 601L82 601L164 601L245 601L327 601L409 601L491 601L573 601L655 601L736 601L818 601L900 601L900 563L818 581L736 587L655 563L573 581L491 551L409 563L327 575L245 557L164 545L82 581L0 545Z" fill="#ffffff"></path></svg>