<svg id="visual" viewBox="0 0 900 600" width="900" height="600" xmlns="http://www.w3.org/2000/svg" xmlns:xlink="http://www.w3.org/1999/xlink" version="1.1"><path d="M0 157L225 175L450 169L675 193L900 181L900 0L675 0L450 0L225 0L0 0Z" fill="#ffffff"></path><path d="M0 247L225 241L450 241L675 265L900 253L900 179L675 191L450 167L225 173L0 155Z" fill="#eef0f2"></path><path d="M0 301L225 313L450 313L675 325L900 307L900 251L675 263L450 239L225 239L0 245Z" fill="#dee2e6"></path><path d="M0 349L225 373L450 361L675 373L900 361L900 305L675 323L450 311L225 311L0 299Z" fill="#dee2e6"></path><path d="M0 451L225 469L450 463L675 469L900 451L900 359L675 371L450 359L225 371L0 347Z" fill="#eef0f2"></path><path d="M0 601L225 601L450 601L675 601L900 601L900 449L675 467L450 461L225 467L0 449Z" fill="#ffffff"></path></svg>