<svg id="visual" viewBox="0 0 900 600" width="900" height="600" xmlns="http://www.w3.org/2000/svg" xmlns:xlink="http://www.w3.org/1999/xlink" version="1.1"><rect x="0" y="0" width="900" height="600" fill="#dee2e6"></rect><path d="M0 507L30 500.5C60 494 120 481 180 473.5C240 466 300 464 360 471.5C420 479 480 496 540 494C600 492 660 471 720 466.8C780 462.7 840 475.3 870 481.7L900 488L900 601L870 601C840 601 780 601 720 601C660 601 600 601 540 601C480 601 420 601 360 601C300 601 240 601 180 601C120 601 60 601 30 601L0 601Z" fill="#ffffff" stroke-linecap="round" stroke-linejoin="miter"></path></svg>