<svg id="visual" viewBox="0 0 900 600" width="900" height="600" xmlns="http://www.w3.org/2000/svg" xmlns:xlink="http://www.w3.org/1999/xlink" version="1.1"><path d="M0 37L90 31L180 37L270 31L360 25L450 31L540 25L630 37L720 25L810 37L900 25L900 0L810 0L720 0L630 0L540 0L450 0L360 0L270 0L180 0L90 0L0 0Z" fill="#ffffff"></path><path d="M0 85L90 73L180 79L270 85L360 67L450 73L540 79L630 85L720 85L810 91L900 79L900 23L810 35L720 23L630 35L540 23L450 29L360 23L270 29L180 35L90 29L0 35Z" fill="#f6f7f8"></path><path d="M0 193L90 181L180 199L270 199L360 187L450 199L540 217L630 217L720 217L810 223L900 193L900 77L810 89L720 83L630 83L540 77L450 71L360 65L270 83L180 77L90 71L0 83Z" fill="#eceef1"></path><path d="M0 235L90 229L180 235L270 247L360 223L450 247L540 253L630 259L720 259L810 271L900 241L900 191L810 221L720 215L630 215L540 215L450 197L360 185L270 197L180 197L90 179L0 191Z" fill="#e3e7ea"></path><path d="M0 265L90 265L180 277L270 289L360 259L450 283L540 289L630 295L720 289L810 301L900 283L900 239L810 269L720 257L630 257L540 251L450 245L360 221L270 245L180 233L90 227L0 233Z" fill="#dee2e6"></path><path d="M0 295L90 295L180 313L270 325L360 295L450 319L540 325L630 331L720 319L810 337L900 313L900 281L810 299L720 287L630 293L540 287L450 281L360 257L270 287L180 275L90 263L0 263Z" fill="#dee2e6"></path><path d="M0 427L90 439L180 439L270 439L360 457L450 457L540 427L630 439L720 451L810 463L900 445L900 311L810 335L720 317L630 329L540 323L450 317L360 293L270 323L180 311L90 293L0 293Z" fill="#e3e7ea"></path><path d="M0 505L90 511L180 517L270 517L360 529L450 523L540 511L630 523L720 517L810 523L900 505L900 443L810 461L720 449L630 437L540 425L450 455L360 455L270 437L180 437L90 437L0 425Z" fill="#eceef1"></path><path d="M0 529L90 535L180 547L270 547L360 553L450 553L540 535L630 553L720 541L810 547L900 535L900 503L810 521L720 515L630 521L540 509L450 521L360 527L270 515L180 515L90 509L0 503Z" fill="#f6f7f8"></path><path d="M0 601L90 601L180 601L270 601L360 601L450 601L540 601L630 601L720 601L810 601L900 601L900 533L810 545L720 539L630 551L540 533L450 551L360 551L270 545L180 545L90 533L0 527Z" fill="#ffffff"></path></svg>