<svg id="visual" viewBox="0 0 900 600" width="900" height="600" xmlns="http://www.w3.org/2000/svg" xmlns:xlink="http://www.w3.org/1999/xlink" version="1.1"><path d="M0 61L150 73L300 55L450 79L600 91L750 115L900 73L900 0L750 0L600 0L450 0L300 0L150 0L0 0Z" fill="#ffffff"></path><path d="M0 205L150 253L300 295L450 271L600 181L750 217L900 211L900 71L750 113L600 89L450 77L300 53L150 71L0 59Z" fill="#f6f7f9"></path><path d="M0 445L150 403L300 409L450 439L600 391L750 397L900 427L900 209L750 215L600 179L450 269L300 293L150 251L0 203Z" fill="#f1f3f5"></path><path d="M0 499L150 499L300 499L450 505L600 475L750 481L900 511L900 425L750 395L600 389L450 437L300 407L150 401L0 443Z" fill="#f6f7f9"></path><path d="M0 601L150 601L300 601L450 601L600 601L750 601L900 601L900 509L750 479L600 473L450 503L300 497L150 497L0 497Z" fill="#ffffff"></path></svg>