<svg id="visual" viewBox="0 0 900 600" width="900" height="600" xmlns="http://www.w3.org/2000/svg" xmlns:xlink="http://www.w3.org/1999/xlink" version="1.1"><path d="M0 139L300 175L600 49L900 103L900 0L600 0L300 0L0 0Z" fill="#ffffff"></path><path d="M0 187L300 235L600 145L900 151L900 101L600 47L300 173L0 137Z" fill="#eef0f2"></path><path d="M0 277L300 259L600 223L900 181L900 149L600 143L300 233L0 185Z" fill="#dee2e6"></path><path d="M0 373L300 445L600 439L900 439L900 179L600 221L300 257L0 275Z" fill="#dee2e6"></path><path d="M0 517L300 511L600 517L900 517L900 437L600 437L300 443L0 371Z" fill="#eef0f2"></path><path d="M0 601L300 601L600 601L900 601L900 515L600 515L300 509L0 515Z" fill="#ffffff"></path></svg>